<?xml version="1.0" ?>
<svg enable-background="new 0 0 512 512" version="1.1" viewBox="0 0 512 512" xml:space="preserve" xmlns="http://www.w3.org/2000/svg" xmlns:xlink="http://www.w3.org/1999/xlink">
  <g id="Layer_4">
    <path clip-rule="evenodd" d="   M253,363h16.18c1.48,0,2.68-1.2,2.68-2.69V255.15h27.6c1.39,0,2.54-1.07,2.66-2.47l2.66-31.67c0.13-1.58-1.1-2.93-2.67-2.93h-30.25   v-22.46c0-5.29,4.23-9.55,9.45-9.55h21.27c1.48,0,2.68-1.21,2.68-2.69V151.7c0-1.49-1.19-2.7-2.68-2.7h-35.94   c-14.43,0-26.99,8.08-33.48,20" fill="none" fill-rule="evenodd" stroke="#ffffff" stroke-linecap="round" stroke-linejoin="round" stroke-miterlimit="10" stroke-width="15" />
    <path clip-rule="evenodd" d="   M228.45,191v12v15.09h-19.04c-1.48,0-2.67,1.21-2.67,2.7v31.68c0,1.48,1.18,2.69,2.67,2.69h19.04v1.69v103.47" fill="none" fill-rule="evenodd" stroke="#ffffff" stroke-linecap="round" stroke-linejoin="round" stroke-miterlimit="10" stroke-width="15" />
    <path d="   M323,435.99c-20.86,7.77-43.43,12.01-67,12.01c-106.04,0-192-85.96-192-192S149.96,64,256,64s192,85.96,192,192   c0,69.82-37.27,130.94-93,164.54" fill="none" stroke="#ffffff" stroke-linecap="round" stroke-linejoin="round" stroke-miterlimit="10" stroke-width="15" />
  </g>
  <g id="Layer_1" />
</svg>