<svg id="Capa_2" data-name="Capa 2" xmlns="http://www.w3.org/2000/svg" viewBox="0 0 393.29 293.7"><defs><style>.cls-1{fill:#020304;}.cls-2{fill:#c0996d;}.cls-3{fill:#60615f;}.cls-4{fill:#fff;}.cls-5{fill:#1d1d1b;}</style></defs><path class="cls-1" d="M167.47,569.65H451.54a145.49,145.49,0,0,1-284.07,0Z" transform="translate(-114.19 -390.07)"/><path class="cls-1" d="M451.54,504.65H167.47a145.5,145.5,0,0,1,284.07,0Z" transform="translate(-114.19 -390.07)"/><path class="cls-2" d="M230,457.83A112,112,0,0,1,414.37,498.9H451a146.9,146.9,0,0,0-283.77,0h36.63A111.57,111.57,0,0,1,230,457.83ZM388.2,616a112,112,0,0,1-184.34-41.07H167.23a146.9,146.9,0,0,0,283.77,0H414.37A111.38,111.38,0,0,1,388.2,616Z" transform="translate(-114.19 -390.07)"/><path class="cls-3" d="M164.05,504.65c4.45,9.27,17.11,33.27,17.11,33.27l-14.44,29.73H453.06l-16.4-29.73L455,504.65Z" transform="translate(-114.19 -390.07)"/><polygon class="cls-2" points="346.24 175.09 43.98 175.09 43.98 180.08 346.24 180.08 346.24 175.09 346.24 175.09"/><polygon class="cls-2" points="95.29 146.25 0 146.25 0 149.45 95.29 149.45 95.29 146.25 95.29 146.25"/><polygon class="cls-2" points="95.29 153.29 34.84 153.29 34.84 156.49 95.29 156.49 95.29 153.29 95.29 153.29"/><polygon class="cls-2" points="95.29 139.21 34.84 139.21 34.84 142.41 95.29 142.41 95.29 139.21 95.29 139.21"/><polygon class="cls-2" points="393.29 146.25 298 146.25 298 149.45 393.29 149.45 393.29 146.25 393.29 146.25"/><polygon class="cls-2" points="358.45 139.21 298 139.21 298 142.41 358.45 142.41 358.45 139.21 358.45 139.21"/><polygon class="cls-2" points="358.45 153.29 298 153.29 298 156.49 358.45 156.49 358.45 153.29 358.45 153.29"/><polygon class="cls-2" points="346.24 112.09 43.98 112.09 43.98 117.08 346.24 117.08 346.24 112.09 346.24 112.09"/><path class="cls-4" d="M308.82,670.73h-1a3,3,0,0,1-2.11-.89,3,3,0,0,1-.87-2.13,3,3,0,0,1,3-3h1a3,3,0,1,1,0,6ZM293,669.8l-.36,0a3,3,0,0,1-2.64-3,2.48,2.48,0,0,1,0-.38,3,3,0,0,1,6,.34c0,.12,0,.25,0,.38A3,3,0,0,1,293,669.8Zm31.71,0a3,3,0,0,1-3-2.64c0-.12,0-.25,0-.38a3,3,0,0,1,2.59-3h.05a3,3,0,0,1,3.34,2.62c0,.12,0,.25,0,.38a3,3,0,0,1-2.64,3Zm14.66-2.63a3,3,0,0,1-.7-5.92l.95-.23a3.45,3.45,0,0,1,.72-.08,3,3,0,0,1,.71,5.91l-.22.06L340,667A3.25,3.25,0,0,1,339.33,667.12Zm-62-.17a3.45,3.45,0,0,1-.72-.08l-.29-.08-.7-.17a3,3,0,0,1,1.48-5.82l1,.24a3,3,0,0,1-.72,5.91Zm-15.18-4.72a2.8,2.8,0,0,1-1-.18h0l-.07,0a3,3,0,1,1,1.06.2Zm93.32-.06a3,3,0,0,1-1.06-5.81,3,3,0,0,1,1.06-.19,3,3,0,0,1,2.81,1.94,2.93,2.93,0,0,1,.19,1,3,3,0,0,1-1.94,2.85A3.2,3.2,0,0,1,355.46,662.17Zm13.6-6.07a3,3,0,0,1-1.37-5.66l.86-.45a3,3,0,0,1,1.39-.35,3,3,0,0,1,1.4,5.66l-.9.47A3,3,0,0,1,369.06,656.1Zm-121.41-.4a3.07,3.07,0,0,1-1.39-.34l-.9-.48a3,3,0,1,1,2.83-5.29c.29.15.57.31.86.45l0,0a3,3,0,0,1,1.44,1.75,3,3,0,0,1-2.87,3.89Zm-13.59-8.22a3,3,0,0,1-3-3,2.93,2.93,0,0,1,.53-1.67,3.08,3.08,0,0,1,4.14-.79l0,0a3,3,0,0,1,1.3,2.5,3.06,3.06,0,0,1-.53,1.68A3,3,0,0,1,234.06,647.48Zm149.46-.06a3,3,0,0,1-1.71-5.47,3.07,3.07,0,0,1,4.17.76,3,3,0,0,1,.54,1.67,3,3,0,0,1-1.29,2.51A3.08,3.08,0,0,1,383.52,647.42Zm11.74-9.15a3,3,0,0,1-2.26-1,3,3,0,0,1,.28-4.23l.14-.12.59-.52.09-.08h0a3.08,3.08,0,0,1,4.15.32,3,3,0,0,1-.25,4.23l-.76.67A3,3,0,0,1,395.26,638.27Zm-173.72-.58a3,3,0,0,1-2-.75l-.76-.67a3,3,0,0,1-.23-4.24,3.1,3.1,0,0,1,4.24-.23l.72.65h0a3,3,0,0,1-2,5.23ZM210.3,626.48a3,3,0,0,1-2-5.24,3.08,3.08,0,0,1,4.23.25l.08.08h0a3,3,0,0,1,.69,1.94,3,3,0,0,1-1,2.21A3,3,0,0,1,210.3,626.48Zm196.92-.11a3,3,0,0,1-2-.75,3,3,0,0,1-.26-4.24,3.09,3.09,0,0,1,4.23-.26,3,3,0,0,1,1,2.28,3,3,0,0,1-.74,1.94v0A3,3,0,0,1,407.22,626.37Zm9.23-11.69A3,3,0,0,1,414,610l.14-.2.42-.6a3.07,3.07,0,0,1,4.17-.77,3,3,0,0,1,.77,4.18l-.09.13c-.17.23-.33.47-.49.7A3,3,0,0,1,416.45,614.68Zm-216-.68a3,3,0,0,1-2.47-1.29l-.57-.84a3,3,0,0,1,.78-4.17,3.08,3.08,0,0,1,4.17.79l.55.8h0a3,3,0,0,1,.48,2.23,3,3,0,0,1-2.95,2.47Zm-8.23-13.57a3,3,0,0,1-2.66-1.6,3.13,3.13,0,0,1-.35-1.37,3,3,0,0,1,1.61-2.69,3.07,3.07,0,0,1,1.39-.34,3,3,0,0,1,2.66,1.6,3.09,3.09,0,0,1,.35,1.36,3,3,0,0,1-1.61,2.69A3,3,0,0,1,192.26,600.43Zm233-.16a3,3,0,0,1-1.39-.35,3,3,0,0,1-1.27-4v0a3,3,0,0,1,2.65-1.6,3.08,3.08,0,0,1,1.4.34,3,3,0,0,1,1.26,4.06l-.1.18v0A3,3,0,0,1,425.24,600.27Zm6.18-13.56a2.92,2.92,0,0,1-1.09-.2,3,3,0,0,1-1.71-3.89c.11-.28.23-.58.35-.9a3,3,0,0,1,2.8-1.94,3,3,0,0,1,2.81,4.07c-.12.32-.24.63-.37.95A3,3,0,0,1,431.42,586.71ZM185.73,586a3,3,0,0,1-2.81-1.94l-.36-1a3,3,0,0,1,1.77-3.86,3.13,3.13,0,0,1,1-.18,3,3,0,0,1,2.81,2c.11.31.22.61.34.91a3,3,0,0,1-2.8,4.07ZM432,493.17a3,3,0,0,1-2.81-1.95l-.08-.23-.26-.68a3,3,0,0,1,1.74-3.87,3.06,3.06,0,0,1,3.87,1.74l.36.95a3,3,0,0,1-1.77,3.85A2.91,2.91,0,0,1,432,493.17Zm-246.4-.54a3,3,0,0,1-1.06-.19,3,3,0,0,1-1.74-3.87v0c.12-.31.24-.62.35-.92a3,3,0,0,1,2.8-1.92,3.14,3.14,0,0,1,1.09.2,3,3,0,0,1,1.71,3.89l-.35.9A3,3,0,0,1,185.62,492.63Zm6.52-14.49a3.07,3.07,0,0,1-1.39-.34,3,3,0,0,1-1.61-2.69,2.93,2.93,0,0,1,.35-1.36,3,3,0,0,1,2.66-1.61,3.07,3.07,0,0,1,1.39.34,3,3,0,0,1,1.6,2.69,3,3,0,0,1-.34,1.36A3,3,0,0,1,192.14,478.14Zm233-.37a3,3,0,0,1-2.65-1.6,2.88,2.88,0,0,1-.35-1.43,3,3,0,0,1,5.65-1.37l0,0h0a3.11,3.11,0,0,1,.33,1.33,3,3,0,0,1-3,3ZM417.45,465a3,3,0,0,1-2.48-1.31c-.18-.26-.36-.53-.55-.79l0,0h0a3,3,0,0,1,.78-4.14,3.08,3.08,0,0,1,4.17.76c.1.13.19.27.29.41l.29.42a3,3,0,0,1-2.48,4.69Zm-217.1-.48a3,3,0,0,1-2.46-4.7l.41-.6.16-.24a3.1,3.1,0,0,1,4.18-.74,3,3,0,0,1,.74,4.18l-.55.8A3,3,0,0,1,200.35,464.54ZM210.14,452a3,3,0,0,1-3-3,2.93,2.93,0,0,1,.75-1.95,3.09,3.09,0,0,1,4.23-.27,3,3,0,0,1,1,2.28,3.06,3.06,0,0,1-.75,2l-.09.1h0A3,3,0,0,1,210.14,452Zm196.92-.29a3,3,0,0,1-2-5.24,3.08,3.08,0,0,1,4.23.25,3,3,0,0,1-2.24,5Zm-10.51-10.54a3,3,0,0,1-2-.77l-.43-.37-.3-.27a3,3,0,0,1-1-2.06,3,3,0,0,1,.75-2.18,3.09,3.09,0,0,1,4.23-.26c.26.22.51.45.76.68a3,3,0,0,1,.23,4.23A3,3,0,0,1,396.55,441.19Zm-175.2-.42a3,3,0,0,1-2-5.24l.76-.67a3.09,3.09,0,0,1,4.24.28,2.92,2.92,0,0,1,.73,2.17,3,3,0,0,1-1,2.06l-.26.23-.47.41A3,3,0,0,1,221.35,440.77ZM233.83,431a3,3,0,0,1-3-3,3.06,3.06,0,0,1,1.27-2.42h0a3.08,3.08,0,0,1,4.18.75,3,3,0,0,1,.53,1.67,3,3,0,0,1-1.29,2.51l-.07.05h0A3,3,0,0,1,233.83,431Zm149.45-.2a3,3,0,0,1-1.7-.53l-.13-.09h0a3,3,0,0,1-.65-4.08,3.08,3.08,0,0,1,4.16-.78h0a3,3,0,0,1-1.71,5.47ZM370.56,423a3,3,0,0,1-1.41-.35l-.79-.42-.07,0a3,3,0,0,1,1.39-5.65,3,3,0,0,1,1.39.34l.78.41.12.07a3,3,0,0,1-1.41,5.64Zm-123.17-.3a3,3,0,0,1-1.4-5.65l.9-.47a3,3,0,0,1,4.24,3.57,3,3,0,0,1-1.48,1.76l-.86.45h0A3,3,0,0,1,247.39,422.71Zm14.48-6.53a3,3,0,0,1-3-3,3,3,0,0,1,1.93-2.77,3,3,0,1,1,2.13,5.61A3,3,0,0,1,261.87,416.18Zm93.32-.14a3,3,0,0,1-1.07-.2,3,3,0,0,1-1.93-2.84,3,3,0,0,1,3-3,3,3,0,0,1,1.06.19,3,3,0,0,1-1.06,5.81ZM341,411.56v0a3,3,0,0,1-.73-.09l-.95-.23a3,3,0,1,1,1.43-5.83l1,.25a3,3,0,0,1-.73,5.9Zm-64-.11a3,3,0,0,1-.72-5.92l1-.24a3,3,0,0,1,3.61,2.23,3,3,0,0,1-2.22,3.61l-.94.23A3,3,0,0,1,277,411.45Zm15.62-2.88a3,3,0,0,1-3-2.63c0-.13,0-.26,0-.38a3,3,0,0,1,6-.35c0,.12,0,.25,0,.38a3,3,0,0,1-2.63,3Zm31.72-.08h0l-.36,0h0a3,3,0,0,1-2.6-2.94,1.7,1.7,0,0,1,0-.39,3,3,0,0,1,6,.33c0,.13,0,.25,0,.38A3,3,0,0,1,324.37,408.49Zm-14.87-.91h-1a3,3,0,0,1-3-3,3,3,0,0,1,.87-2.12,3,3,0,0,1,2.12-.89h1a3,3,0,0,1,0,6Z" transform="translate(-114.19 -390.07)"/><path class="cls-5" d="M241.29,549.65v-25.2H245l12.42,18.87V524.45h3.46v25.2H258l-13.25-19.9v19.9Z" transform="translate(-114.19 -390.07)"/><path class="cls-5" d="M274.34,527.8h1l-7.74,21.85H264l9-25.2h3.6l9,25.2h-3.6Zm5.91,15.05h-10.8v-3.1h10.8Z" transform="translate(-114.19 -390.07)"/><path class="cls-5" d="M287.66,549.65l3.38-25.2H294l6.63,12.5,6.55-12.5h2.95l3.35,25.2h-3.6l-2.56-20.55.9.14-7.56,14.44-7.7-14.44.9-.14-2.56,20.55Z" transform="translate(-114.19 -390.07)"/><path class="cls-5" d="M317.87,549.65v-25.2h15.37v3.1H321.29v7.38h9.5V538h-9.5v8.53h12.27v3.09Z" transform="translate(-114.19 -390.07)"/><path class="cls-5" d="M345.91,549.65v-25.2h15.37v3.1H349.33v7.38h9.21V538h-9.21v11.62Z" transform="translate(-114.19 -390.07)"/><path class="cls-5" d="M375.68,550.16a13.15,13.15,0,0,1-6.54-1.61,11.66,11.66,0,0,1-4.52-4.56,15.34,15.34,0,0,1,0-13.88,11.62,11.62,0,0,1,4.57-4.55,13.45,13.45,0,0,1,6.61-1.61,16.28,16.28,0,0,1,3.68.41,14.4,14.4,0,0,1,3.06,1.07l-.36,3.16a18.15,18.15,0,0,0-3-1.09,12.82,12.82,0,0,0-3.44-.46,8.79,8.79,0,0,0-5,1.35,8.41,8.41,0,0,0-3.05,3.61,12,12,0,0,0-1,5,12.36,12.36,0,0,0,1,5.06,8.36,8.36,0,0,0,3,3.61,8.76,8.76,0,0,0,5,1.34,14,14,0,0,0,3.46-.4,15.33,15.33,0,0,0,3-1.11l.36,3.17a17.58,17.58,0,0,1-3.05,1A15.87,15.87,0,0,1,375.68,550.16Z" transform="translate(-114.19 -390.07)"/></svg>