<?xml version="1.0" ?>
<svg enable-background="new 0 0 512 512" version="1.1" viewBox="0 0 512 512" xml:space="preserve" xmlns="http://www.w3.org/2000/svg" xmlns:xlink="http://www.w3.org/1999/xlink">
  <g id="Layer_4">
    <path d="   M323,435.99c-20.86,7.77-43.43,12.01-67,12.01c-106.04,0-192-85.96-192-192S149.96,64,256,64s192,85.96,192,192   c0,69.82-37.27,130.94-93,164.54" fill="none" stroke="#FFFFFF" stroke-linecap="round" stroke-linejoin="round" stroke-miterlimit="10" stroke-width="15" />
    <path d="   M165.54,303c-1.55-10.09-0.88-23.05,5.37-36.02c10.99-22.79,36.03-44.15,71.9-38.8v37.76c0,0-23.28-6.72-35.18,10.86   c-10.61,15.69-6.72,49.14,27.42,49.14c30,0,29.49-33.11,29.49-33.11V199" fill="none" stroke="#FFFFFF" stroke-linecap="round" stroke-linejoin="round" stroke-miterlimit="10" stroke-width="15" />
    <path d="   M264.54,172v-24h37.25c0,0-2.07,48.11,51.21,51.73v36.73c0,0-30.52,0-51.21-16.55v77.6c0,0-1.64,59.16-64.15,66.21   c-15.66,1.77-36.21-4.66-51.73-19.66c-5.57-5.39-9.48-10.85-12.3-16.06" fill="none" stroke="#FFFFFF" stroke-linecap="round" stroke-linejoin="round" stroke-miterlimit="10" stroke-width="15" />
  </g>
  <g id="Layer_1" />
</svg>