<?xml version="1.0" ?>
<svg enable-background="new 0 0 512 512" version="1.1" viewBox="0 0 512 512" xml:space="preserve" xmlns="http://www.w3.org/2000/svg" xmlns:xlink="http://www.w3.org/1999/xlink">
  <g id="Layer_4">
    <g>
      <path d="M256,455.5C146,455.5,56.5,366,56.5,256S146,56.5,256,56.5S455.5,146,455.5,256    c0,35.01-9.2,69.45-26.61,99.6c-16.88,29.24-41.1,53.92-70.02,71.36c-3.55,2.14-8.16,1-10.3-2.55c-2.14-3.55-1-8.16,2.55-10.3    c55.96-33.74,89.37-92.85,89.37-158.12c0-101.73-82.77-184.5-184.5-184.5S71.5,154.27,71.5,256S154.27,440.5,256,440.5    c22.15,0,43.82-3.88,64.38-11.54c3.88-1.44,8.2,0.53,9.65,4.41c1.45,3.88-0.53,8.2-4.41,9.65C303.37,451.3,279.95,455.5,256,455.5    z" fill="#FFFFFF" />
    </g>
    <g>
      <g>
        <g>
          <path d="M221.95,352c-0.33,0-0.66,0-0.99,0c-3.87-0.03-6.98-3.18-6.95-7.05s3.15-6.99,7.05-6.95      c31.42,0.21,59.96-10.87,80.43-31.21c20.84-20.7,31.41-50.19,31.41-87.63c0-3.74,2.1-5.58,8.24-10.42      c-3.59,0.3-6.89-2.18-7.51-5.81c-0.55-3.28,1.26-6.41,4.21-7.63c0.59-0.52,1.36-1.39,2.23-2.49c-2.82,0.93-5.72,1.76-8.71,2.51      c-4.09,1.04-7.23-1.64-9.75-3.79l-0.32-0.27c-3.24-2.74-6.54-4.77-10.16-6.24c-4.76-1.94-10.04-2.79-15.26-2.45      c-4.99,0.33-10.04,1.76-14.61,4.14c-4.54,2.37-8.64,5.72-11.85,9.67c-3.36,4.14-5.78,9-7.01,14.05      c-1.08,4.4-1.18,9.19-0.33,15.08c0.55,3.83-2.1,7.38-5.92,7.93c-3.82,0.55-7.38-2.1-7.93-5.92c-1.12-7.72-0.93-14.2,0.59-20.41      c1.72-7.04,5.08-13.8,9.74-19.54c4.4-5.43,10.02-10.02,16.25-13.27c6.28-3.28,13.26-5.25,20.18-5.7      c7.33-0.47,14.74,0.73,21.45,3.46c5.01,2.04,9.55,4.82,13.87,8.48c0.06,0.05,0.23,0.19,0.42,0.36c0.03,0.03,0.07,0.06,0.12,0.1      c7.3-2.03,13.96-4.68,20.29-8.08c0.1-0.05,0.2-0.1,0.29-0.15c2.21-1.05,4.64-1.16,6.84-0.29c0.64,0.25,1.24,0.6,1.78,1.03      c2.72,2.16,3.72,5.82,2.55,8.96c-0.74,2.19-2.38,5.27-4.19,8.28c1.88-0.42,3.61-0.8,5.05-1.1c4.62-0.98,7.17-1.51,9.93,0.69      c1.66,1.33,2.64,3.36,2.64,5.48v0.18c0,3.57-1.97,5.09-5.55,7.87c-1.77,1.37-4.2,3.22-6.89,5.27      c-4.82,3.67-13.1,9.96-16.69,12.97c-0.58,39.42-12.83,72.09-35.52,94.63C288.43,339.49,256.71,352,221.95,352z M339.36,194.85      C339.35,194.85,339.35,194.85,339.36,194.85C339.35,194.85,339.35,194.85,339.36,194.85z M327.99,181.73      c-0.02,0.01-0.04,0.01-0.06,0.02C327.94,181.74,327.97,181.73,327.99,181.73z M349.73,176.93c-0.09,0.18-0.17,0.36-0.24,0.54      C349.57,177.28,349.65,177.09,349.73,176.93z" fill="#FFFFFF" />
        </g>
        <g>
          <path d="M197.01,349.7c-0.42,0-0.85-0.04-1.28-0.12c-4.08-0.76-8.16-1.7-12.15-2.8      c-8.47-2.34-16.82-5.68-24.8-9.92c-3.11-1.68-5.6-3.16-7.89-4.68c-0.17-0.12-0.34-0.24-0.5-0.37c-2.41-1.93-3.54-4.24-3.37-6.86      c0.16-2.39,1.49-4.57,3.57-5.83c0.18-0.11,0.37-0.21,0.56-0.31c2.53-1.24,4.75-0.95,6.72-0.66c10.25,0.99,21.25-0.44,31.82-4.14      l1.04-0.36c1.64-0.57,4.66-1.61,7.81-2.89c-9.71-4.09-21.85-12.03-28.1-29.02c-1.12-2.92-0.7-5.97,1.14-8.2      c0.07-0.09,0.15-0.18,0.23-0.26c-9-8.01-15.26-19.36-16.79-31.48c-0.28-2.17-0.44-4.05-0.31-6.16c0-0.04,0.01-0.09,0.01-0.14      c0.35-4.35,3.13-6.2,4.31-6.79c0.38-0.19,0.95-0.43,1.68-0.6c-7.29-14.31-8.84-33.53,0.56-47.62c2.09-3.12,4.67-3.91,6.46-4.03      c2.62-0.17,4.96,0.91,6.97,3.2c15.88,18.11,34.68,29.68,59.17,36.43c3.73,1.03,5.92,4.88,4.89,8.61      c-1.03,3.73-4.88,5.92-8.61,4.89c-24.04-6.63-43.84-17.98-60.3-34.6c-3.44,12.07,1.29,27.46,9.39,35.13      c1.47,1.39,3.07,2.86,4.72,4.16c2.14,1.67,3.12,4.43,2.51,7.08c-0.61,2.65-2.69,4.7-5.35,5.27c-1.86,0.4-6.26-0.11-11.15-1.45      c3.06,10.77,11.15,20.02,21.31,23.88c0.08,0.03,0.16,0.06,0.23,0.09c1.42,0.6,2.77,1.02,3.89,1.21c3.3,0.56,5.75,3.39,5.82,6.75      c0.07,3.35-2.24,6.29-5.52,7c-2.19,0.47-4.45,0.88-7.94,0.98c6.16,9.02,15.28,12.89,24.51,15.56c0.34,0.05,0.73,0.08,1.14,0.13      c0.97,0.1,2.18,0.21,3.48,0.51c2.14,0.49,3.92,1.95,4.82,3.96s0.81,4.31-0.25,6.23c-0.27,0.5-0.6,0.96-0.98,1.38      c-4.77,6.53-15.45,10.64-25.15,14l-1.01,0.35c-4.69,1.64-9.46,2.9-14.24,3.77c2.4,0.85,4.81,1.62,7.23,2.28      c3.6,0.99,7.29,1.84,10.97,2.53c3.8,0.71,6.31,4.36,5.61,8.16C203.26,347.35,200.32,349.7,197.01,349.7z M221.04,312.04      c0,0,0,0.01-0.01,0.01C221.04,312.05,221.04,312.05,221.04,312.04z M176.84,284.65C176.84,284.65,176.84,284.65,176.84,284.65      C176.84,284.65,176.84,284.65,176.84,284.65z" fill="#FFFFFF" />
        </g>
      </g>
    </g>
  </g>
  <g id="Layer_1" />
</svg>