<?xml version="1.0" ?>
<svg enable-background="new 0 0 512 512" version="1.1" viewBox="0 0 512 512" xml:space="preserve" xmlns="http://www.w3.org/2000/svg" xmlns:xlink="http://www.w3.org/1999/xlink">
  <g id="Layer_4">
    <path d="   M319,448H124c-33,0-60-27-60-60V124c0-33,27-60,60-60h264c33,0,60,27,60,60v264c0,33-27,60-60,60h-25" fill="none" stroke="#FFFFFF" stroke-linecap="round" stroke-linejoin="round" stroke-miterlimit="10" stroke-width="15" />
    <path d="   M299,331.01h21.25c25.84,0,44.52-23.51,44.52-49.36v-53.8c0-25.84-18.68-46.87-44.52-46.87h-117.9c-9.89,0-20.29,3.08-29.35,8.34    M153.81,207c-4.12,6.28-6.58,13.37-6.58,20.86v53.8c0,25.84,29.29,49.36,55.12,49.36H270 M233.5,266v-33.17   c0-2.41,8.01-3.93,10.09-2.73l51.76,27.93c2.18,1.23,4.82,4.35,2.64,5.53l-54.43,26.53c-2.11,1.14-10.06-0.39-10.06-2.77" fill="none" stroke="#FFFFFF" stroke-linecap="round" stroke-linejoin="round" stroke-miterlimit="10" stroke-width="15" />
  </g>
  <g id="Layer_1" />
</svg>